<?xml version="1.0" standalone="no"?>
<!DOCTYPE svg PUBLIC "-//W3C//DTD SVG 20010904//EN"
        "http://www.w3.org/TR/2001/REC-SVG-20010904/DTD/svg10.dtd">
<svg version="1.0" xmlns="http://www.w3.org/2000/svg"
     width="55px" height="55px" viewBox="0 0 700.000000 700.000000"
     preserveAspectRatio="xMidYMid meet">
    <metadata>
        Created by potrace 1.14, written by Peter Selinger 2001-2017
    </metadata>
    <g transform="translate(0.000000,700.000000) scale(0.100000,-0.100000)"
       fill="#ffffff" stroke="none">
        <path d="M3563 6275 c-15 -7 -46 -30 -68 -51 -48 -46 -287 -270 -330 -310 -16
-15 -91 -85 -165 -155 -75 -70 -145 -136 -157 -147 -12 -10 -82 -75 -155 -144
-73 -69 -158 -148 -188 -175 -30 -28 -78 -73 -106 -100 -28 -26 -106 -100
-174 -163 -68 -63 -135 -126 -150 -140 -29 -27 -262 -246 -315 -295 -17 -16
-82 -77 -145 -135 -62 -58 -127 -118 -144 -135 -17 -16 -94 -88 -170 -160 -77
-71 -152 -141 -166 -155 -15 -14 -82 -77 -150 -140 -68 -63 -136 -126 -150
-140 -54 -51 -190 -178 -299 -280 -191 -177 -210 -197 -221 -225 -6 -15 -10
-117 -10 -232 l0 -205 35 -35 34 -34 108 1 c60 1 114 1 121 1 9 -1 12 -90 12
-411 l0 -410 -59 0 c-74 0 -105 -11 -128 -47 -16 -24 -18 -53 -19 -253 0 -124
4 -237 9 -253 15 -46 56 -67 131 -67 l66 0 0 -245 c0 -211 2 -249 16 -271 36
-55 -163 -51 3034 -50 2839 1 2967 2 2993 19 16 10 32 29 37 43 13 34 13 3504
0 3538 -18 47 -54 61 -170 63 -58 1 -111 2 -117 2 -10 1 -13 132 -13 619 l0
619 118 0 c198 1 194 -6 190 348 l-3 265 -28 27 -27 28 -1525 1 c-1183 1
-1530 -2 -1552 -11z m2927 -323 l0 -129 -282 3 c-156 1 -652 5 -1103 8 -451 4
-927 8 -1058 9 -145 2 -250 -2 -267 -8 -16 -5 -86 -64 -155 -130 -70 -66 -139
-131 -154 -144 -14 -13 -89 -83 -166 -156 -77 -73 -156 -147 -175 -165 -19
-18 -95 -89 -168 -158 -74 -69 -143 -135 -155 -145 -12 -10 -58 -53 -102 -95
-79 -75 -325 -307 -395 -372 -35 -32 -253 -237 -315 -295 -82 -78 -304 -287
-340 -320 -22 -21 -96 -90 -165 -155 -69 -65 -141 -133 -161 -151 -20 -19 -95
-89 -165 -155 -71 -67 -145 -136 -164 -154 -19 -18 -95 -88 -167 -157 -73 -69
-141 -132 -150 -139 -24 -18 -173 -19 -174 -1 0 6 -1 55 0 107 l0 95 95 90
c52 50 121 115 154 145 32 30 118 111 192 180 73 69 141 132 151 141 15 13
179 167 309 289 30 29 255 238 309 288 20 18 63 59 96 90 113 106 220 206 349
327 71 66 146 136 166 155 21 19 91 85 156 146 66 61 135 126 154 144 19 18
96 89 170 159 448 420 433 406 601 562 63 59 141 132 174 163 l60 55 1423 1
1422 0 0 -128z m-1883 -321 l132 -1 0 -625 -1 -625 -31 -1 c-41 -1 -359 -1
-372 0 -7 1 -9 213 -8 618 0 340 2 623 2 628 1 6 31 9 73 8 40 -1 132 -2 205
-2z m1151 -10 c9 -1 12 -132 12 -621 0 -341 -3 -620 -7 -621 -56 -6 -396 -2
-400 5 -4 6 -8 1170 -4 1232 1 7 63 9 194 8 105 -1 198 -3 205 -3z m-1640
-624 l2 -617 -22 -1 c-132 -4 -171 -3 -176 6 -4 6 -7 285 -7 620 l-1 611 101
-1 100 0 3 -618z m1030 -1 l-3 -620 -83 0 c-46 -1 -91 2 -100 5 -16 6 -17 51
-16 610 1 332 2 609 3 614 1 7 40 11 101 10 l100 0 -2 -619z m1028 612 c4 -5
8 -282 8 -618 l1 -610 -35 -1 c-174 -5 -170 -6 -171 21 -1 31 -1 1191 0 1205
1 12 185 14 197 3z m-2471 -670 c-1 -304 -3 -556 -3 -559 -1 -3 -28 -4 -60 -2
-66 3 -116 -20 -132 -63 -6 -14 -10 -127 -10 -251 0 -193 2 -229 17 -254 22
-36 56 -50 130 -51 l60 -1 0 -103 0 -103 -206 2 -206 2 -1 775 -1 775 82 80
c124 122 319 305 326 305 3 0 5 -249 4 -552z m-618 -710 l-2 -673 -102 -2
-102 -2 0 575 0 576 100 99 c55 54 102 99 104 99 2 0 2 -303 2 -672z m-412
-200 l-1 -473 -49 -2 c-93 -5 -115 -12 -135 -46 -18 -29 -20 -52 -20 -273 l0
-240 30 -29 c27 -26 40 -30 100 -33 56 -3 70 -8 71 -21 3 -42 5 -167 2 -176
-2 -6 -79 -10 -206 -9 l-202 0 -2 709 c-3 677 -2 708 16 724 10 9 76 71 147
137 222 209 238 223 244 214 3 -4 5 -221 5 -482z m3817 80 c1 -35 2 -81 0
-103 l-3 -40 -1382 0 c-760 0 -1386 3 -1392 7 -8 5 -11 72 -6 176 l1 22 1389
0 1389 0 4 -62z m-4437 -779 c0 -526 -2 -599 -15 -600 -8 -1 -54 -2 -103 -3
l-87 -1 0 515 0 515 98 91 c53 51 99 90 102 87 3 -3 5 -274 5 -604z m4435 394
c0 -18 0 -602 0 -1298 0 -696 0 -1319 0 -1385 l0 -120 -2835 0 -2835 0 -1 28
c-1 33 -1 314 0 325 1 4 399 7 886 7 771 0 890 2 915 15 70 36 71 137 1 178
-23 13 -72 16 -356 15 -182 0 -349 1 -372 1 l-43 1 0 308 0 308 883 0 c695 0
890 3 914 13 64 26 76 112 24 165 l-29 29 -379 1 -378 1 -2 308 -2 307 880 0
c960 0 932 -2 962 57 21 40 14 91 -17 122 l-26 26 -383 5 -382 5 -1 300 c0
165 1 303 2 306 2 3 582 6 1289 6 l1285 0 0 -34z m-4846 -578 c-1 -223 -4
-408 -7 -411 -3 -3 -35 -7 -72 -9 -75 -4 -109 -26 -123 -77 -4 -15 -7 -127 -6
-247 1 -187 3 -223 17 -245 25 -37 53 -48 124 -50 35 0 63 -3 64 -6 1 -7 1
-162 0 -182 -1 -17 -18 -18 -206 -18 l-205 0 0 637 0 637 38 34 c20 19 96 89
167 157 190 179 197 185 204 185 3 0 5 -182 5 -405z m2062 98 l2 -103 -517 0
-516 0 1 98 c1 53 2 99 3 102 0 3 232 5 514 5 l512 0 1 -102z m-2681 -808 l0
-535 -102 0 c-100 0 -103 1 -104 23 0 12 -1 211 -1 441 l-1 420 99 93 c54 51
101 93 104 93 3 0 5 -241 5 -535z m1649 -20 l1 -100 -516 -1 -516 -1 0 96 c-1
53 1 99 4 103 2 4 234 7 515 5 l511 -2 1 -100z m-1038 -728 c8 -8 10 -185 2
-193 -5 -4 -827 -8 -995 -5 l-33 1 0 99 c0 57 4 101 10 103 19 6 1009 2 1016
-5z"/>
    </g>
</svg>
