<?xml version="1.0" encoding="UTF-8"?>
<svg xmlns="http://www.w3.org/2000/svg" xmlns:xlink="http://www.w3.org/1999/xlink" viewBox="0 0 75 75" width="75px" height="75px">
<g id="surface452078">
<path style=" stroke:none;fill-rule:nonzero;fill:rgb(0%,0%,0%);fill-opacity:1;" d="M 37.5 53.125 C 17.34375 53.125 1.5625 46.25 1.5625 37.5 C 1.5625 28.75 17.34375 21.875 37.5 21.875 C 57.65625 21.875 73.4375 28.75 73.4375 37.5 C 73.4375 46.25 57.65625 53.125 37.5 53.125 Z M 37.5 25 C 17.8125 25 4.6875 31.40625 4.6875 37.5 C 4.6875 43.59375 17.8125 50 37.5 50 C 57.1875 50 70.3125 43.59375 70.3125 37.5 C 70.3125 31.40625 57.1875 25 37.5 25 Z M 37.5 25 "/>
<path style=" stroke:none;fill-rule:nonzero;fill:rgb(0%,0%,0%);fill-opacity:1;" d="M 23.59375 69.6875 C 22.03125 69.6875 20.78125 69.375 19.53125 68.59375 C 11.875 64.21875 13.90625 47.1875 23.90625 29.6875 C 28.59375 21.5625 34.375 14.6875 40 10.3125 C 46.09375 5.625 51.5625 4.21875 55.3125 6.40625 C 59.21875 8.59375 60.625 14.0625 59.6875 21.71875 C 58.75 28.90625 55.625 37.34375 50.9375 45.46875 C 46.25 53.59375 40.46875 60.46875 34.84375 64.84375 C 30.78125 67.96875 26.875 69.6875 23.59375 69.6875 Z M 51.40625 8.4375 C 48.90625 8.4375 45.625 9.84375 42.03125 12.65625 C 36.71875 16.875 31.25 23.4375 26.71875 31.25 C 16.875 48.28125 15.9375 62.96875 21.09375 65.9375 C 23.75 67.5 28.125 66.09375 32.96875 62.34375 C 38.28125 58.125 43.75 51.5625 48.28125 43.75 C 52.8125 35.9375 55.78125 27.96875 56.71875 21.25 C 57.5 15 56.5625 10.625 53.90625 9.0625 C 53.125 8.75 52.34375 8.4375 51.40625 8.4375 Z M 51.40625 8.4375 "/>
<path style=" stroke:none;fill-rule:nonzero;fill:rgb(0%,0%,0%);fill-opacity:1;" d="M 51.5625 69.6875 C 43.75 69.6875 32.5 60.15625 24.0625 45.3125 C 13.90625 27.8125 11.875 10.78125 19.53125 6.40625 C 27.1875 2.03125 40.9375 12.1875 51.09375 29.6875 C 55.78125 37.8125 58.90625 46.25 59.84375 53.4375 C 60.9375 61.09375 59.375 66.40625 55.46875 68.75 C 54.21875 69.375 52.96875 69.6875 51.5625 69.6875 Z M 21.09375 9.0625 C 15.9375 12.03125 16.875 26.71875 26.71875 43.75 C 36.5625 60.78125 48.75 68.90625 53.90625 65.9375 C 56.5625 64.375 57.5 60 56.71875 53.75 C 55.78125 47.03125 52.8125 39.0625 48.28125 31.25 C 38.4375 14.21875 26.25 6.09375 21.09375 9.0625 Z M 21.09375 9.0625 "/>
<path style=" stroke:none;fill-rule:nonzero;fill:rgb(0%,0%,0%);fill-opacity:1;" d="M 43.75 37.5 C 43.75 40.953125 40.953125 43.75 37.5 43.75 C 34.046875 43.75 31.25 40.953125 31.25 37.5 C 31.25 34.046875 34.046875 31.25 37.5 31.25 C 40.953125 31.25 43.75 34.046875 43.75 37.5 Z M 43.75 37.5 "/>
</g>
</svg>
